<svg xmlns="http://www.w3.org/2000/svg" viewBox="0 0 32 32">
  <rect width="32" height="32" rx="6" fill="#f4f0ed"/>
  <g stroke="rgba(99,72,50,0.08)" stroke-width="0.5">
    <line x1="0" y1="8" x2="32" y2="8"/>
    <line x1="0" y1="16" x2="32" y2="16"/>
    <line x1="0" y1="24" x2="32" y2="24"/>
    <line x1="8" y1="0" x2="8" y2="32"/>
    <line x1="16" y1="0" x2="16" y2="32"/>
    <line x1="24" y1="0" x2="24" y2="32"/>
  </g>
  <g
    stroke="#634832"
    stroke-width="1.2"
    stroke-linecap="round"
    opacity="0.5"
    fill="none"
  >
    <path d="M 24 9 Q 15 13 7 16" />
    <path d="M 7 16 Q 15 19 24 23" />
  </g>
  <path
    d="M 24 9
       C 20 5.5, 14 5.5, 10 8
       C 6 10.5, 6 21.5, 10 24
       C 14 26.5, 20 26.5, 24 23"
    fill="none"
    stroke="#634832"
    stroke-width="3.5"
    stroke-linecap="round"
    stroke-linejoin="round"
  />
  <circle cx="24" cy="9" r="2.8" fill="#8b4513" />
  <circle cx="7" cy="16" r="2.8" fill="#8b4513" />
  <circle cx="24" cy="23" r="2.8" fill="#8b4513" />
</svg>
